<?xml version="1.0" encoding="utf-8"?>
<!-- Generator: Adobe Illustrator 15.0.2, SVG Export Plug-In . SVG Version: 6.00 Build 0)  -->
<!DOCTYPE svg PUBLIC "-//W3C//DTD SVG 1.1//EN" "http://www.w3.org/Graphics/SVG/1.1/DTD/svg11.dtd">
<svg version="1.1" id="Layer_1" xmlns="http://www.w3.org/2000/svg" xmlns:xlink="http://www.w3.org/1999/xlink" x="0px" y="0px"
	 width="1200px" height="1200px" viewBox="0 0 1200 1200" enable-background="new 0 0 1200 1200" xml:space="preserve">
<path fill="#020202" d="M721.569,597.143c0-1.764-1.443-3.199-3.193-3.199h-21.307l-39.396-236.347H545.881l-39.396,236.347h-21.299
	c-1.759,0-3.198,1.436-3.198,3.199v76.654h-4.792v65.102h249.16v-65.102h-4.786V597.143z M1140,457.83
	c0-187.312-241.767-339.157-540-339.157c-298.234,0-540,151.846-540,339.157c0,74.31,38.076,143.028,102.612,198.905
	c-1.099,2.109-2.095,4.277-2.929,6.544c-14.689,39.888,18.349,89.14,74.428,113.031C244.336,946.277,404.228,1081.327,600,1081.327
	c196.141,0,356.277-135.553,365.96-305.958c54.734-24.239,86.708-72.729,72.213-112.09c-0.661-1.802-1.444-3.535-2.273-5.233
	C1101.349,601.934,1140,532.719,1140,457.83z M967.546,627.07c-2.739,2.461-5.604,4.93-8.504,7.312
	c5.896,9.404,9.013,19.233,9.013,29.317c0,29.262-26.386,56.284-71.011,78.231c1.014,8.245,1.552,16.641,1.552,25.17
	c0,98.739-70.549,183.858-172.24,222.799v-67.517c-36.641,13.367-77.723,13.332-113.071-3.884
	c-19.168-8.931-34.505-22.994-52.392-34.486c-26.576-14.571-57.172-13.61-83.696-2.528v108.398
	C375.533,950.945,305,865.832,305,767.101c0-8.529,0.5-16.925,1.547-25.17c-44.662-21.947-71.043-48.97-71.043-78.231
	c0-10.084,3.138-19.913,9.031-29.317c-2.925-2.382-5.751-4.851-8.511-7.312C170.65,580.68,131.466,521.617,131.466,457.27
	c0-149.192,210.58-270.13,470.312-270.13c259.768,0,470.31,120.938,470.31,270.13C1072.088,521.602,1032.949,580.68,967.546,627.07z
	 M477.196,822.395c38.252-14.102,81.504-13.3,118.193,7.945c23,14.055,42.169,31.943,67.725,39.61
	c7.658,1.28,15.334,2.553,22.991,2.553c10.231-1.272,20.445-1.272,29.392-5.108c3.641-1.362,7.278-2.735,10.858-4.223v-90.739
	h-249.16V822.395z"/>
</svg>
